<?xml version="1.0" encoding="utf-8"?>
<!-- Generator: Adobe Illustrator 26.2.1, SVG Export Plug-In . SVG Version: 6.00 Build 0)  -->
<svg version="1.1" id="Layer_1" xmlns="http://www.w3.org/2000/svg" xmlns:xlink="http://www.w3.org/1999/xlink" x="0px" y="0px"
	 viewBox="0 0 230.1055 212.4298" style="enable-background:new 0 0 230.1055 212.4298;" xml:space="preserve">
<style type="text/css">
	.Drop_x0020_Shadow{fill:none;}
	.Round_x0020_Corners_x0020_2_x0020_pt{fill:#FFFFFF;stroke:#000000;stroke-miterlimit:10;}
	.Live_x0020_Reflect_x0020_X{fill:none;}
	.Bevel_x0020_Soft{fill:url(#SVGID_1_);}
	.Dusk{fill:#FFFFFF;}
	.Foliage_GS{fill:#FFDD00;}
	.Pompadour_GS{fill-rule:evenodd;clip-rule:evenodd;fill:#44ADE2;}
	.st0{fill:#1D1D1B;}
	.st1{fill:#FFF5E6;}
	.st2{fill-rule:evenodd;clip-rule:evenodd;fill:#1D1D1B;}
	.st3{fill-rule:evenodd;clip-rule:evenodd;fill:#71C16A;}
	.st4{fill-rule:evenodd;clip-rule:evenodd;fill:#E21F26;}
</style>
<linearGradient id="SVGID_1_" gradientUnits="userSpaceOnUse" x1="-141.8528" y1="-173.057" x2="-141.1457" y2="-172.3499">
	<stop  offset="0" style="stop-color:#DEDFE3"/>
	<stop  offset="0.1738" style="stop-color:#D8D9DD"/>
	<stop  offset="0.352" style="stop-color:#C9CACD"/>
	<stop  offset="0.5323" style="stop-color:#B4B5B8"/>
	<stop  offset="0.7139" style="stop-color:#989A9C"/>
	<stop  offset="0.8949" style="stop-color:#797C7E"/>
	<stop  offset="1" style="stop-color:#656B6C"/>
</linearGradient>
<g>
	<path class="st0" d="M29.9312,154.3516c-14.0425,11.2803-26.3155,21.2891-29.4175,24.2598
		c-0.107,0.0869-0.1572,0.2031-0.1084,0.2558c0.0464,0.0508,0.1601,0.0313,0.2651-0.0449
		c0.0186-0.0137,13.9302-10.2236,30.4014-22.3174c1.9258,3.5342,4.0713,6.9922,6.4389,10.3555
		c-4.9638,4.2637-8.7299,7.6416-9.9917,9.1055c-0.0722,0.0615-0.0834,0.1709-0.0224,0.2421
		c0.0571,0.0674,0.1558,0.0811,0.2285,0.0303c0.0093-0.0068,4.5078-3.1465,11.0029-7.6846c0.4956,0.6758,1.001,1.3487,1.5152,2.0157
		c1.3642,1.7715,2.7734,3.4882,4.2251,5.1494C26.2271,190.3164,4.1421,208.1553,0.105,212.1573
		c-0.0943,0.0771-0.1328,0.1845-0.0835,0.2402c0.0464,0.0518,0.1514,0.04,0.2432-0.0264
		c0.0244-0.0176,25.7978-18.7754,46.6372-33.9609c36.8476,39.3789,98.2954,45.0351,141.9008,11.4541
		c42.0694-32.3975,53.0723-90.1821,28.0586-135.2378c0.7539-1.231,1.4922-2.4756,2.2149-3.7319
		c1.8144-3.1226,3.2373-5.8223,4.79-9.083c1.3877-2.9136,4.252-9.3282,3.8662-13.1446c-0.0683-0.6665-0.3222-1.4692-0.7617-1.9848
		c-0.5293-0.6202-1.1348-1.0157-1.9141-1.2505c-5.3203-1.7613-17.9013,1.3047-23.4296,2.8095
		c-1.4082,0.3833-2.7959,0.7793-4.1661,1.191C160.29-6.2666,101.6094-10.3916,59.5376,22.0083
		C18.3643,53.7168,6.9482,109.7412,29.9312,154.3516z"/>
	<path class="st1" d="M48.7466,172.2969c11.7764-9.4082,21.019-16.7285,21.0561-16.7568c0.8301-0.6944,1.8467-1.1709,2.8755-1.4619
		c1.4805-0.42,2.8277-0.3995,3.1158-0.0235c0.2885,0.377-0.0323,1.6934-0.8165,3.0196c-0.4135,0.6992-1.121,1.6738-2.1069,2.3642
		c-0.8135,0.624-9.9604,7.3018-21.5083,15.7197c37.3184,39.293,99.374,41.9571,139.9424,5.5137
		c34.7432-31.209,42.6523-81.1533,22.1728-120.7969c-3.5117,5.1719-7.4062,10.0645-11.8701,14.5918
		c-5.8008,5.8833-11.4062,10.3487-18.0859,15.4351c5.834,21.6626-0.4453,45.7436-18.2764,61.7602
		c-14.9951,13.4707-34.7871,18.208-53.1421,14.5479c-0.1684,0.1279-0.3379,0.2568-0.5083,0.3857
		c-0.4624,0.3496-1.0507,0.3858-1.5532,0.0957c-0.4141-0.2382-0.6616-0.6562-0.7002-1.0986
		c-11.5317-2.8545-22.3598-9.0771-30.897-18.581c-1.1582-1.2901-2.2524-2.6153-3.2822-3.9727
		c-8.3696,5.8906-21.5952,15.1435-31.9556,22.3848C44.937,167.7735,46.7832,170.0664,48.7466,172.2969z"/>
	<path class="st1" d="M34.2842,150.8594c11.0903-8.8867,22.7871-18.1836,31.6509-25.209
		c-2.2578-6.6816-3.3267-13.6562-3.2242-20.6069c-0.2421-0.0859-0.4604-0.2417-0.6328-0.4595
		c-0.4829-0.6103-0.3799-1.4966,0.2305-1.9795c0.1694-0.1338,0.3394-0.2671,0.5093-0.3999
		c0.9458-15.5542,7.7695-30.7588,20.2773-41.9946c20.2769-18.2149,49.3267-20.4619,71.732-7.5679
		c3.2861-2.5649,6.3554-4.8491,9.9199-7.3901c4.0263-2.876,7.584-5.0855,11.9463-7.4199c4.8457-2.5845,9.7295-4.6768,14.8105-6.4634
		C153.8193-2.7436,95.6797-3.5136,57.0361,31.1997C22.6245,62.1118,14.5366,111.4024,34.2842,150.8594z"/>
	<path class="st1" d="M67.4893,129.7549c-9.1192,6.7041-20.8809,15.3428-31.9722,23.4863
		c1.8394,3.4405,3.8955,6.8018,6.1689,10.0616c9.8409-8.3282,22.4019-18.6133,30.2281-24.9844
		C70.1978,135.5557,68.7236,132.6914,67.4893,129.7549z"/>
	<polygon class="st0" points="145.7793,40.2139 152.4141,42.7813 158.9141,25.9829 165.334,28.4668 167.2246,23.5796 
		147.8594,16.0874 145.9678,20.9746 152.2774,23.416 	"/>
	<polygon class="st0" points="132.9004,22.4942 123.3818,22.4331 123.4053,18.7027 133.5137,18.7671 133.5469,13.6646 
		116.3232,13.5552 116.1753,36.8062 133.9492,36.9195 133.9824,31.8174 123.3223,31.7495 123.3496,27.4668 132.8691,27.5274 	"/>
	<path class="st0" d="M92.9482,44.0996l-2.2099-5.2832c-0.7256-1.7363-1.4434-3.396-2.1528-4.9799
		c-0.7095-1.5835-1.4126-3.0816-2.1089-4.4932l0.145-0.0606c1.1426,1.0596,2.3599,2.1119,3.6509,3.1563
		c1.291,1.0444,2.52,1.998,3.687,2.8608l7.1577,5.3819l6.8906-2.8828l-8.9741-21.4502l-5.9829,2.5034l2.1304,5.0918
		c0.664,1.5913,1.3491,3.1196,2.0566,4.5854c0.7075,1.4654,1.4468,2.8687,2.2192,4.209l-0.1088,0.0454
		c-1.0884-1.0483-2.2413-2.0932-3.46-3.1338c-1.2178-1.0405-2.395-1.9629-3.5303-2.7671L85.7168,21.92l-7.7251,3.2324
		l8.9736,21.4502L92.9482,44.0996z"/>
	<path class="st2" d="M71.0474,53.6748l5.1191,2.3726l5.1621-5.6709L58.813,40.5699l-6.3535,6.9794l12.0054,21.3526l4.9506-5.438
		l-2.9746-4.729L71.0474,53.6748z M63.686,54.9507l-2.3198-3.6538c-0.3701-0.603-0.7978-1.2583-1.2827-1.9653
		c-0.4844-0.7075-0.9243-1.3736-1.3198-1.9995l0.0532-0.0581c0.6631,0.331,1.3809,0.6923,2.1533,1.083
		c0.7725,0.3906,1.4776,0.7402,2.1157,1.0478l3.9092,1.9107L63.686,54.9507z"/>
	<polygon class="st2" points="56.502,89.9195 62.3701,73.6426 57.4727,71.877 54.0176,81.461 37.0415,75.3404 34.6284,82.0332 	"/>
	<path class="st2" d="M55.2827,116.6641l-0.1323-7.0352l-7.9004,0.1495c-0.001-0.2178,0.0054-0.4717,0.02-0.7637
		c0.0147-0.291,0.02-0.6143,0.0166-0.9697c-0.0312-1.8013-0.2578-3.4488-0.6792-4.941c-0.4218-1.4926-1.0551-2.7671-1.8994-3.8237
		c-0.6963-0.8345-1.5376-1.4624-2.5239-1.8838c-0.9863-0.4214-2.0703-0.6221-3.252-0.602
		c-1.2016,0.0356-2.2788,0.3344-3.2324,0.8964c-0.9531,0.5616-1.7192,1.3067-2.2988,2.2349
		c-0.603,0.9321-1.0464,2.0972-1.3306,3.4961c-0.2837,1.3984-0.4082,3.0503-0.3721,4.9561c0.042,1.998,0.126,3.7119,0.252,5.1435
		c0.126,1.4297,0.269,2.6211,0.4292,3.5742L55.2827,116.6641z M36.5557,109.9795c-0.0391-0.1767-0.0762-0.4404-0.1099-0.79
		c-0.0337-0.3496-0.0566-0.7813-0.0674-1.293c-0.0127-1.3559,0.2359-2.3696,0.7456-3.0415
		c0.5098-0.6714,1.2027-1.0141,2.0786-1.0283c1.0113-0.0044,1.8101,0.3843,2.396,1.1655c0.586,0.7813,0.897,1.8682,0.9336,3.2598
		c0.0064,0.3711,0.0049,0.6836-0.0039,0.9414c-0.0088,0.2559-0.0205,0.4814-0.0346,0.6738L36.5557,109.9795z"/>
	<path class="st2" d="M215.0977,110.544c0.3183-0.7959,0.582-1.8975,0.791-3.3037c0.209-1.4063,0.2793-2.9209,0.209-4.5435
		c-0.1524-2.5752-0.6094-4.6777-1.3672-6.3086c-0.7578-1.6304-1.7168-2.8193-2.8731-3.5664
		c-1.1562-0.7471-2.4101-1.083-3.7597-1.0073c-1.6123,0.0742-2.961,0.6982-4.044,1.8716c-1.084,1.1733-1.9463,2.9624-2.5898,5.3672
		c-0.4346,1.6879-0.8164,2.9223-1.1436,3.7026c-0.3281,0.7803-0.7705,1.1802-1.3281,1.1987
		c-0.5244,0.0239-0.9561-0.2412-1.2949-0.7939c-0.3389-0.5532-0.5401-1.3721-0.6045-2.4575
		c-0.0518-1.3199,0.0156-2.4693,0.2021-3.4468c0.1866-0.978,0.3858-1.7593,0.5977-2.3443l-5.0703-1.228
		c-0.291,0.8745-0.5137,1.9033-0.6719,3.086c-0.1563,1.1831-0.1973,2.5566-0.123,4.1215c0.2246,3.3633,1.0605,5.9356,2.5097,7.7159
		c1.4492,1.7812,3.2217,2.6289,5.3184,2.5449c1.7099-0.1211,3.0947-0.8809,4.1533-2.2764c1.0596-1.396,1.876-3.2466,2.4502-5.5522
		c0.3535-1.5039,0.709-2.5938,1.0674-3.2701c0.3584-0.6762,0.8135-1.0224,1.3662-1.0385c0.5918-0.0327,1.0703,0.2412,1.4355,0.8213
		c0.3643,0.5805,0.5821,1.4794,0.6524,2.6967c0.0556,1.355-0.0274,2.6407-0.25,3.8575c-0.2237,1.2168-0.502,2.2461-0.836,3.0898
		L215.0977,110.544z"/>
	<path class="st2" d="M208.3086,140.7451c0.5664-0.6455,1.1836-1.5947,1.8496-2.8505c0.666-1.2559,1.2383-2.6602,1.7139-4.2129
		c0.7148-2.4785,0.9873-4.6133,0.8164-6.4033c-0.1709-1.7901-0.6768-3.2305-1.5186-4.3213
		c-0.8398-1.0899-1.9101-1.8243-3.207-2.2041c-1.5449-0.4678-3.0234-0.3301-4.4375,0.415
		c-1.4121,0.7441-2.8242,2.1426-4.2324,4.1943c-0.9727,1.4463-1.7442,2.4815-2.3145,3.1084
		c-0.5683,0.627-1.1191,0.8555-1.6513,0.6875c-0.502-0.1533-0.8204-0.5468-0.9561-1.1816c-0.1338-0.6348-0.0508-1.4736,0.25-2.5176
		c0.3926-1.2617,0.8398-2.3222,1.3418-3.1816s0.9512-1.5303,1.3457-2.0117l-4.3691-2.8497
		c-0.5664,0.7276-1.1202,1.6231-1.6631,2.6856c-0.543,1.0625-1.0401,2.3437-1.4912,3.8437
		c-0.9121,3.2452-0.9825,5.9493-0.211,8.1114c0.7715,2.1621,2.1592,3.5527,4.1651,4.1738c1.6513,0.4561,3.2099,0.2031,4.6748-0.7598
		c1.4638-0.9619,2.8515-2.4336,4.1621-4.416c0.8359-1.2988,1.5351-2.208,2.0976-2.7256c0.5635-0.5185,1.1084-0.6923,1.6348-0.5224
		c0.5684,0.166,0.9277,0.584,1.0781,1.2529c0.1504,0.6689,0.0547,1.5889-0.2851,2.7588c-0.3985,1.2969-0.9063,2.4805-1.5235,3.5527
		c-0.6152,1.0723-1.2226,1.9512-1.8183,2.6348L208.3086,140.7451z"/>
	<polygon class="st2" points="191.4922,144.6475 185.8975,152.3496 182.8789,150.1563 188.8203,141.9776 184.6924,138.9785 
		174.5693,152.9141 193.3809,166.5801 203.8281,152.1993 199.6992,149.2002 193.4346,157.8243 189.9697,155.3076 195.5645,147.6055 
			"/>
	<path class="st2" d="M166.916,187.5625l5.8526-3.9062l-4.8467-7.2608l0.9492-0.6337c0.8828-0.629,1.6963-0.9161,2.4414-0.8633
		c0.7461,0.0547,1.6328,0.5488,2.6582,1.4824c1.1211,0.9951,2.0654,1.7754,2.834,2.3408c0.7685,0.5654,1.333,0.9356,1.6934,1.1104
		l6.0156-4.0157c-0.3223-0.1709-0.7871-0.5-1.3965-0.9873c-0.6084-0.4873-1.2754-1.0351-2.002-1.6435
		c-0.7255-0.6074-1.4248-1.1768-2.0976-1.7071c-0.8291-0.6572-1.6641-1.1328-2.5059-1.4277
		c-0.8418-0.2949-1.7168-0.3506-2.623-0.167l-0.0567-0.0859c0.7032-0.8955,1.1758-2.0059,1.4161-3.3301
		c0.2412-1.3232-0.0186-2.6094-0.7793-3.8584c-0.6241-0.9297-1.3506-1.6211-2.1797-2.0713
		c-0.8301-0.4502-1.7539-0.6758-2.7744-0.6767c-1.1983,0.0009-2.4913,0.2949-3.878,0.8828
		c-1.3867,0.5879-2.9179,1.4472-4.5957,2.5761c-1.4785,0.9922-2.7978,1.9356-3.957,2.8282
		c-1.1602,0.8935-2.1211,1.6797-2.8848,2.3613L166.916,187.5625z M162.4053,168.1299c0.1221-0.125,0.3349-0.3056,0.6387-0.54
		c0.3037-0.2364,0.7314-0.5391,1.2822-0.9082c0.9892-0.6533,1.875-0.9571,2.6562-0.9121c0.7823,0.0459,1.416,0.4287,1.9024,1.1484
		c0.4795,0.7324,0.5586,1.5137,0.2383,2.3428c-0.3204,0.8291-1.0372,1.622-2.1504,2.3799l-1.5391,1.0273L162.4053,168.1299z"/>
	<path class="st2" d="M134.7949,197.4336l6.8701-1.5166l-1.7041-7.7158c0.2129-0.0439,0.4639-0.0879,0.752-0.1309
		c0.2891-0.0429,0.6074-0.1015,0.9551-0.1748c1.7597-0.3857,3.3301-0.9326,4.7099-1.6396c1.3799-0.709,2.5049-1.5801,3.3741-2.6172
		c0.6806-0.8457,1.1308-1.7949,1.3486-2.8457c0.2187-1.0488,0.2021-2.1523-0.0508-3.3066c-0.2724-1.1709-0.7773-2.168-1.5166-2.9922
		c-0.7383-0.8233-1.6191-1.4278-2.6445-1.8125c-1.0322-0.4082-2.2617-0.6133-3.6895-0.6153
		c-1.4267-0.0029-3.0703,0.2012-4.9316,0.6123c-1.9512,0.4346-3.6152,0.8555-4.9922,1.2608
		c-1.377,0.4062-2.5176,0.7812-3.4199,1.126L134.7949,197.4336z M137.6553,177.7559c0.166-0.0723,0.417-0.1602,0.7529-0.2627
		c0.3359-0.1025,0.7539-0.21,1.2539-0.3213c1.3272-0.2793,2.3701-0.2363,3.1289,0.1309c0.7588,0.3672,1.2315,0.9795,1.418,1.8359
		c0.2031,0.9902-0.0195,1.8496-0.6699,2.5781c-0.6504,0.7285-1.6543,1.2481-3.0127,1.5586
		c-0.3614,0.0791-0.669,0.1397-0.9229,0.1817c-0.2529,0.042-0.4765,0.0742-0.6679,0.0986L137.6553,177.7559z"/>
	<path class="st2" d="M121.7617,198.2979l-5.7324-12.9463l8.8672-10.0977l-8.0034-1.2548l-2.1699,3.4306
		c-0.3628,0.5742-0.711,1.1348-1.045,1.6826c-0.334,0.5479-0.7011,1.167-1.102,1.8565l-0.0777-0.0117
		c-0.184-0.7002-0.3667-1.377-0.5478-2.0274c-0.1817-0.6523-0.3823-1.3398-0.6025-2.0635l-1.2154-3.9267l-8.0425-1.2617
		l5.3311,12.4648l-9.2036,10.4649l7.9643,1.248l2.3413-3.5088c0.4253-0.6592,0.835-1.2822,1.229-1.8721
		c0.3946-0.5898,0.7613-1.1933,1.1006-1.8134l0.0777,0.0127c0.2217,0.707,0.4424,1.4043,0.6616,2.0937
		c0.2197,0.6895,0.4643,1.4258,0.7334,2.21l1.3164,4.0478L121.7617,198.2979z"/>
	<polygon class="st2" points="93.2935,177.1826 85.0073,172.4971 86.8433,169.25 95.6436,174.2246 98.1548,169.7832 
		83.1611,161.3067 71.7173,181.5469 87.1899,190.295 89.7012,185.8535 80.4219,180.6075 82.5298,176.8789 90.8159,181.5645 	"/>
	<path class="st3" d="M224.7695,28.4488c-0.1543-0.1582-0.3213-0.2583-0.5332-0.3208c-0.4648-0.147-0.8672-0.2373-1.3496-0.3028
		c-5.0029-0.6172-14.5683,1.5054-20.5136,3.1338c-4.167,1.1343-7.6465,2.2363-11.7051,3.7085
		c-4.5762,1.6787-8.3438,3.3628-12.6475,5.6514c-4.2451,2.2851-7.7099,4.4375-11.6396,7.2295
		c-4.3467,3.1084-7.9512,5.8237-12.1387,9.144l-0.0098,0.0073c-10.0761,7.8448-17.9238,15.333-26.2334,25.0288
		c-0.2705,0.315-0.6201,0.4815-1.0341,0.4917c-3.1983,0.0806-5.8946,0.2959-9.0645,0.7251
		C100.8716,85.231,83.604,91.167,69.3525,100.917c1.0943-0.185,2.0215-0.3208,3.1231-0.456
		c3.6489-0.4688,6.7764-0.5357,10.4419-0.2232c3.3447,0.2696,6.1382,0.98,9.2051,2.3404c3.4013,1.5156,5.9145,3.6601,7.9463,6.7802
		l0.5415,0.8291l-4.5054,5.9727c-1.9653,2.5771-3.5523,4.8086-5.3413,7.5098c-0.3179,0.4921-0.7149,1.4716-0.3086,2.0595
		l5.9775,7.7617c0.4004,0.4854,1.4595,0.4092,2.0615,0.2159c2.7588-0.9287,5.0621-1.7891,7.753-2.8985l7.7939-3.1758l0.6621,0.7305
		c2.0298,2.2354,3.2964,4.5488,4.0874,7.4629c0.8531,3.209,1.0469,6.0703,0.6338,9.3662
		c-0.6543,5.4229-2.1914,10.1328-4.3901,14.999c5.6987-4.9306,10.0664-9.6191,14.582-15.6513
		c5.585-7.4463,10.043-15.0401,13.8106-23.4522c1.8154-4.04,3.122-7.5537,4.3886-11.7978c0.1172-0.3955,0.3662-0.6905,0.7393-0.8701
		c11.4961-5.5567,20.7402-11.232,30.8984-18.9693c3.5196-2.664,6.461-4.9541,9.9063-7.7143
		c3.7793-3.0455,6.8271-5.7974,10.2412-9.2486c6.6484-6.7583,12.291-14.7324,17.0303-22.9946
		c1.7656-3.064,3.1582-5.707,4.6904-8.8936c0.9463-1.978,3.917-8.4902,3.6084-11.6313
		C224.9141,28.7759,224.8643,28.6162,224.7695,28.4488z"/>
	<path class="st4" d="M180.4404,92.2393c-9.8603,7.4487-18.9121,12.9922-30.1005,18.4463
		c-1.2559,4.1562-2.5489,7.5976-4.3399,11.5527c-3.876,8.625-8.3809,16.3438-14.1289,23.9922
		c-4.9648,6.6338-9.9561,11.9473-16.0303,17.0029c14.9541,2.1729,30.7373-1.4756,43.6563-11.4238
		C178.209,137.3985,185.6758,113.8008,180.4404,92.2393z"/>
	<path class="st4" d="M110.8804,162.291c4.7417-9.1015,9.2217-22.705,2.3681-31.2919l-5.9311,2.4169
		c-2.7539,1.1524-5.1167,2.0352-7.9512,2.9708c-1.7265,0.5644-3.9057,0.3994-5.126-1.1231l-6.0922-7.9141
		c-1.1343-1.5527-0.7369-3.7109,0.2578-5.2246c1.8276-2.7597,3.4487-5.039,5.456-7.6699l3.2866-4.3574
		c-1.6806-2.252-3.6059-3.7944-6.1699-4.9439c-2.7671-1.2187-5.2837-1.8579-8.2969-2.1074
		c-3.4614-0.2856-6.4126-0.2221-9.8584,0.2114c-2.3295,0.2867-4.392,0.6402-6.5327,1.128
		c-0.1738,6.3427,0.6895,12.7353,2.6255,18.9013c7.0567-5.5888,11.7012-9.2529,11.7261-9.2714
		c0.8413-0.7022,1.8652-1.1895,2.8989-1.4942c1.4873-0.4375,2.8355-0.4375,3.1182-0.0683c0.2832,0.3701-0.0567,1.6816-0.8609,3.0107
		c-0.4238,0.7002-1.1459,1.6777-2.143,2.3779c-0.5684,0.4366-5.7168,4.2285-13.2036,9.7344
		c1.1694,2.8984,2.5874,5.7324,4.2578,8.4678c2.834-2.3018,4.5718-3.7051,4.5937-3.7217c0.9702-0.8184,2.1773-1.3555,3.4087-1.6631
		c1.7725-0.4424,3.4063-0.3476,3.7754,0.1338c0.3692,0.4824,0.0488,2.0967-0.8325,3.6992
		c-0.4653,0.8457-1.2715,2.0156-2.4312,2.8203c-0.4575,0.3516-2.3335,1.6875-5.1416,3.67c0.0718,0.0937,0.1436,0.1875,0.2159,0.2812
		C86.7515,152.2412,98.3682,159.3487,110.8804,162.291z"/>
	<path class="st4" d="M66.645,99.3716c14.9492-10.5034,32.919-16.8286,50.8804-19.2197c3.0576-0.4136,5.6572-0.6309,8.7402-0.731
		c8.1319-9.4228,15.8028-16.7578,25.5235-24.3886c-19.5088-10.5708-44.2329-9.3799-62.9453,5.0307
		C75.9199,70.0157,68.3604,84.3516,66.645,99.3716z"/>
</g>
</svg>
